<?xml version="1.0" standalone="no"?>
<!DOCTYPE svg PUBLIC "-//W3C//DTD SVG 20010904//EN"
 "http://www.w3.org/TR/2001/REC-SVG-20010904/DTD/svg10.dtd">
<svg version="1.0" xmlns="http://www.w3.org/2000/svg"
 width="500.000000pt" height="500.000000pt" viewBox="0 0 500.000000 500.000000"
 preserveAspectRatio="xMidYMid meet">

<g transform="translate(0.000000,500.000000) scale(0.100000,-0.100000)"
fill="#000000" stroke="none">
<path d="M2285 4031 c-36 -5 -41 -10 -57 -51 -9 -25 -17 -55 -17 -68 -1 -15
-10 -26 -27 -32 -52 -20 -74 -12 -128 45 l-52 55 -54 -16 c-30 -9 -58 -21 -61
-26 -4 -6 -10 -37 -13 -70 -6 -52 -11 -61 -39 -78 -42 -26 -62 -25 -95 5 -15
14 -41 35 -59 46 -31 19 -33 19 -65 3 -76 -39 -238 -168 -238 -189 0 -7 9 -32
19 -56 26 -60 22 -80 -28 -135 -23 -26 -49 -61 -57 -77 -9 -16 -18 -27 -21
-24 -7 7 14 44 51 92 28 36 29 38 6 22 -26 -18 -56 -22 -62 -9 -4 9 -63 52
-72 52 -13 0 -5 -28 9 -34 8 -3 15 -12 15 -20 0 -9 6 -13 14 -10 7 3 21 -2 30
-11 17 -17 22 -40 7 -30 -5 3 -15 -12 -22 -32 -6 -21 -24 -54 -39 -73 -15 -19
-29 -44 -32 -55 -3 -17 -10 -19 -46 -17 -23 2 -42 -1 -42 -6 0 -5 6 -10 13 -9
6 0 21 -1 31 -1 19 -2 19 -2 0 -23 -10 -11 -24 -33 -31 -47 l-13 -27 5 28 c6
30 -10 37 -20 8 -5 -16 -15 -19 -56 -17 l-49 1 6 30 c9 43 12 45 44 38 33 -6
38 2 14 28 -13 14 -13 20 -2 38 7 12 16 21 20 21 5 0 8 5 8 10 0 31 -54 -8
-80 -59 -10 -19 -10 -22 2 -16 7 5 1 -3 -14 -18 -16 -14 -29 -33 -29 -42 -2
-19 -3 -25 -13 -53 -6 -19 1 -32 43 -77 28 -30 51 -63 51 -74 0 -12 -14 -47
-31 -79 -19 -37 -32 -80 -36 -118 -8 -85 -13 -90 -93 -105 -107 -19 -105 -16
-105 -160 l0 -123 35 -13 c19 -7 61 -20 93 -29 l58 -16 -3 -55 c-3 -54 -4 -55
-42 -68 -84 -29 -87 -75 -4 -75 39 0 54 -5 73 -25 40 -40 33 -67 -36 -133 -58
-55 -61 -61 -55 -93 4 -19 26 -72 49 -119 41 -84 43 -85 82 -88 22 -2 65 1 96
7 31 6 62 9 70 6 8 -3 25 -26 38 -51 14 -25 56 -75 95 -110 l70 -64 -17 -47
c-24 -68 -22 -88 19 -133 44 -48 146 -131 192 -154 28 -15 35 -15 60 -2 15 8
45 33 67 55 26 26 49 40 66 41 29 0 89 -19 90 -28 0 -4 2 -37 3 -75 4 -79 22
-107 71 -107 33 0 74 36 116 99 15 24 18 24 73 15 l58 -9 22 -70 c25 -77 43
-116 60 -127 16 -11 130 -10 160 2 35 13 79 77 100 144 13 41 23 56 36 56 9 0
31 3 48 6 24 5 34 1 49 -17 74 -92 97 -111 127 -105 47 10 56 26 69 116 12 82
12 83 47 96 67 24 84 19 146 -46 36 -38 65 -60 79 -60 37 0 235 144 276 201
l20 29 -33 61 -33 60 67 62 c38 35 80 87 98 120 18 31 35 57 38 57 4 0 40 -7
81 -15 40 -9 81 -13 90 -10 19 6 69 85 106 168 14 32 25 60 25 62 0 3 -27 34
-60 71 -33 36 -60 70 -60 75 0 6 9 28 20 49 20 39 22 40 60 34 49 -8 90 2 90
21 0 17 -56 55 -81 55 -23 0 -30 22 -22 75 6 44 6 44 62 60 31 9 65 19 76 22
42 12 45 22 45 134 0 146 -3 153 -82 168 -93 18 -96 19 -108 55 -16 50 -4 77
47 109 55 33 48 48 -23 50 -54 2 -64 8 -88 54 -24 48 -20 60 34 110 31 28 50
54 50 68 0 28 -97 183 -130 207 -22 16 -32 17 -92 6 -77 -12 -91 -6 -115 50
-13 31 -12 35 12 63 25 31 34 79 14 79 -6 0 -25 -11 -43 -25 -18 -14 -39 -25
-46 -25 -23 0 -100 70 -100 92 0 11 9 31 20 45 28 36 25 54 -12 89 -74 69
-220 164 -252 164 -10 0 -38 -18 -63 -40 -49 -42 -66 -47 -108 -28 -19 9 -29
25 -41 67 -24 89 -29 96 -72 109 -61 19 -69 16 -113 -44 -41 -53 -44 -55 -78
-49 -47 9 -52 15 -77 88 -16 48 -26 63 -45 68 -29 8 -149 8 -204 0z m716 -641
c91 -11 140 -33 190 -87 79 -83 74 -27 77 -793 2 -623 1 -689 -14 -729 -23
-61 -84 -124 -147 -152 l-52 -24 -670 0 c-369 0 -686 3 -706 8 -56 12 -123 62
-165 123 l-39 56 -3 689 c-3 686 -2 689 19 739 24 55 75 107 141 142 41 22 56
23 313 28 537 10 979 10 1056 0z m-1954 -156 c-3 -3 -12 -4 -19 -1 -8 3 -5 6
6 6 11 1 17 -2 13 -5z m110 -436 c-3 -8 -6 -5 -6 6 -1 11 2 17 5 13 3 -3 4
-12 1 -19z m93 -762 c0 -3 -4 -8 -10 -11 -5 -3 -10 -1 -10 4 0 6 5 11 10 11 6
0 10 -2 10 -4z"/>
<path d="M1725 3206 c-37 -16 -92 -77 -101 -112 -11 -44 2 -122 27 -158 50
-73 130 -93 219 -55 l49 21 44 -32 44 -31 8 -365 c7 -358 7 -364 -14 -398 -44
-70 -18 -177 56 -233 31 -24 46 -28 98 -28 119 0 189 78 184 203 -2 37 -2 100
-1 140 l2 72 324 0 c178 0 331 3 340 6 13 5 16 22 16 85 l0 79 -390 0 -390 0
0 -120 c0 -66 -3 -120 -7 -120 -5 0 -25 5 -46 11 l-37 10 2 292 3 292 153 3
152 3 0 -46 c0 -81 35 -142 102 -176 92 -47 204 4 239 108 27 82 -18 189 -94
224 -38 17 -69 19 -322 19 l-280 0 -59 40 c-32 22 -63 40 -67 40 -5 0 -9 17
-9 38 0 147 -123 241 -245 188z"/>
<path d="M1103 3313 c21 -5 23 -23 2 -23 -8 0 -15 -4 -15 -9 0 -15 35 -7 41 9
7 17 -8 30 -31 29 -11 -1 -10 -3 3 -6z"/>
<path d="M1209 1542 c-6 -49 -6 -50 15 -42 25 9 28 42 4 46 -10 1 -18 -1 -19
-4z"/>
<path d="M3517 1543 c-8 -7 21 -43 35 -43 4 0 8 7 8 16 0 8 -4 12 -10 9 -5 -3
-10 1 -10 9 0 17 -12 21 -23 9z"/>
</g>
</svg>
